<?xml version="1.0" encoding="UTF-8" standalone="no"?>
<!DOCTYPE svg PUBLIC "-//W3C//DTD SVG 1.1//EN" "http://www.w3.org/Graphics/SVG/1.1/DTD/svg11.dtd">
<svg width="100%" height="100%" viewBox="0 0 256 256" version="1.1" xmlns="http://www.w3.org/2000/svg" xmlns:xlink="http://www.w3.org/1999/xlink" xml:space="preserve" xmlns:serif="http://www.serif.com/" style="fill-rule:evenodd;clip-rule:evenodd;stroke-linejoin:round;stroke-miterlimit:2;">
    <g id="Layer1">
        <rect x="0" y="0" width="256" height="256" style="fill:white;"/>
    </g>
    <g transform="matrix(3.39125,0,0,3.39125,-234.503,-301.31)">
        <g transform="matrix(50,0,0,50,68.6367,139.452)">
            <path d="M0.391,-0.523L0.488,-0.523C0.476,-0.489 0.448,-0.413 0.406,-0.293C0.374,-0.204 0.347,-0.13 0.326,-0.074C0.275,0.06 0.239,0.141 0.218,0.17C0.197,0.2 0.162,0.214 0.111,0.214C0.098,0.214 0.089,0.214 0.082,0.213C0.076,0.212 0.067,0.21 0.058,0.208L0.058,0.127C0.073,0.132 0.084,0.134 0.091,0.135C0.098,0.136 0.104,0.137 0.109,0.137C0.125,0.137 0.137,0.134 0.145,0.129C0.152,0.123 0.159,0.117 0.164,0.109C0.166,0.106 0.172,0.093 0.182,0.069C0.192,0.045 0.199,0.027 0.204,0.015L0.01,-0.523L0.11,-0.523L0.25,-0.097L0.391,-0.523Z" style="fill-rule:nonzero;"/>
        </g>
        <g transform="matrix(50,0,0,50,93.6367,139.452)">
            <path d="M0.282,-0.535C0.319,-0.535 0.355,-0.526 0.39,-0.509C0.425,-0.491 0.451,-0.469 0.47,-0.441C0.487,-0.415 0.499,-0.384 0.505,-0.349C0.51,-0.325 0.513,-0.286 0.513,-0.233L0.129,-0.233C0.131,-0.18 0.144,-0.138 0.167,-0.106C0.19,-0.074 0.227,-0.058 0.276,-0.058C0.322,-0.058 0.358,-0.073 0.386,-0.103C0.401,-0.121 0.412,-0.141 0.419,-0.164L0.505,-0.164C0.503,-0.145 0.496,-0.123 0.483,-0.1C0.47,-0.076 0.455,-0.057 0.439,-0.042C0.413,-0.016 0.38,0.002 0.34,0.011C0.319,0.016 0.295,0.019 0.269,0.019C0.203,0.019 0.148,-0.005 0.103,-0.052C0.058,-0.1 0.035,-0.166 0.035,-0.251C0.035,-0.335 0.058,-0.404 0.104,-0.456C0.149,-0.508 0.209,-0.535 0.282,-0.535ZM0.422,-0.303C0.419,-0.341 0.41,-0.372 0.397,-0.395C0.373,-0.437 0.333,-0.458 0.277,-0.458C0.236,-0.458 0.203,-0.443 0.175,-0.414C0.148,-0.385 0.133,-0.348 0.132,-0.303L0.422,-0.303Z" style="fill-rule:nonzero;"/>
        </g>
        <g transform="matrix(50,0,0,50,121.444,139.452)">
            <path d="M0.117,-0.164C0.119,-0.135 0.127,-0.112 0.139,-0.097C0.161,-0.068 0.199,-0.054 0.254,-0.054C0.286,-0.054 0.315,-0.061 0.34,-0.075C0.365,-0.09 0.377,-0.111 0.377,-0.141C0.377,-0.164 0.367,-0.181 0.347,-0.192C0.334,-0.2 0.309,-0.208 0.272,-0.217L0.202,-0.235C0.158,-0.246 0.125,-0.258 0.104,-0.272C0.066,-0.296 0.047,-0.329 0.047,-0.371C0.047,-0.42 0.065,-0.46 0.1,-0.491C0.136,-0.521 0.184,-0.537 0.244,-0.537C0.323,-0.537 0.38,-0.514 0.415,-0.467C0.436,-0.438 0.447,-0.406 0.446,-0.373L0.363,-0.373C0.362,-0.392 0.355,-0.41 0.342,-0.427C0.322,-0.45 0.287,-0.461 0.237,-0.461C0.204,-0.461 0.179,-0.455 0.162,-0.442C0.145,-0.43 0.136,-0.413 0.136,-0.392C0.136,-0.369 0.147,-0.351 0.17,-0.337C0.183,-0.329 0.202,-0.322 0.228,-0.316L0.286,-0.302C0.349,-0.286 0.391,-0.272 0.413,-0.257C0.447,-0.235 0.464,-0.2 0.464,-0.151C0.464,-0.105 0.446,-0.065 0.411,-0.031C0.376,0.003 0.322,0.02 0.25,0.02C0.172,0.02 0.117,0.002 0.084,-0.033C0.052,-0.068 0.035,-0.112 0.032,-0.164L0.117,-0.164Z" style="fill-rule:nonzero;"/>
        </g>
    </g>
</svg>
